<mxfile host="app.diagrams.net" agent="Mozilla/5.0 (Macintosh; Intel Mac OS X 10.15; rv:141.0) Gecko/20100101 Firefox/141.0" version="28.1.0">
  <diagram name="Page-1" id="EFutKRIC7RBg3wHYcu1j">
    <mxGraphModel dx="985" dy="1215" grid="1" gridSize="10" guides="1" tooltips="1" connect="1" arrows="1" fold="1" page="1" pageScale="1" pageWidth="850" pageHeight="1100" math="0" shadow="0">
      <root>
        <mxCell id="0" />
        <mxCell id="1" parent="0" />
        <mxCell id="FJhBCzEN1oQyKlK9skSU-10" value="" style="edgeStyle=orthogonalEdgeStyle;rounded=0;orthogonalLoop=1;jettySize=auto;html=1;curved=1;" edge="1" parent="1" source="FJhBCzEN1oQyKlK9skSU-1" target="FJhBCzEN1oQyKlK9skSU-2">
          <mxGeometry relative="1" as="geometry" />
        </mxCell>
        <mxCell id="FJhBCzEN1oQyKlK9skSU-1" value="Start" style="rounded=0;whiteSpace=wrap;html=1;" vertex="1" parent="1">
          <mxGeometry x="165" y="30" width="120" height="40" as="geometry" />
        </mxCell>
        <mxCell id="FJhBCzEN1oQyKlK9skSU-11" value="" style="edgeStyle=orthogonalEdgeStyle;rounded=0;orthogonalLoop=1;jettySize=auto;html=1;curved=1;" edge="1" parent="1" source="FJhBCzEN1oQyKlK9skSU-2" target="FJhBCzEN1oQyKlK9skSU-3">
          <mxGeometry relative="1" as="geometry" />
        </mxCell>
        <mxCell id="FJhBCzEN1oQyKlK9skSU-45" value="" style="edgeStyle=orthogonalEdgeStyle;shape=connector;curved=1;rounded=0;orthogonalLoop=1;jettySize=auto;html=1;strokeColor=default;align=center;verticalAlign=middle;fontFamily=Helvetica;fontSize=11;fontColor=default;labelBackgroundColor=default;endArrow=classic;" edge="1" parent="1" source="FJhBCzEN1oQyKlK9skSU-2" target="FJhBCzEN1oQyKlK9skSU-44">
          <mxGeometry relative="1" as="geometry" />
        </mxCell>
        <mxCell id="FJhBCzEN1oQyKlK9skSU-2" value="Query all student AD accounts" style="rounded=0;whiteSpace=wrap;html=1;" vertex="1" parent="1">
          <mxGeometry x="165" y="160" width="120" height="60" as="geometry" />
        </mxCell>
        <mxCell id="FJhBCzEN1oQyKlK9skSU-6" style="edgeStyle=orthogonalEdgeStyle;rounded=0;orthogonalLoop=1;jettySize=auto;html=1;entryX=0.5;entryY=0;entryDx=0;entryDy=0;flowAnimation=0;curved=1;" edge="1" parent="1" source="FJhBCzEN1oQyKlK9skSU-3" target="FJhBCzEN1oQyKlK9skSU-5">
          <mxGeometry relative="1" as="geometry" />
        </mxCell>
        <mxCell id="FJhBCzEN1oQyKlK9skSU-7" value="&lt;font style=&quot;font-size: 12px;&quot; face=&quot;Verdana&quot;&gt;YES&lt;/font&gt;" style="edgeLabel;html=1;align=center;verticalAlign=middle;resizable=0;points=[];" vertex="1" connectable="0" parent="FJhBCzEN1oQyKlK9skSU-6">
          <mxGeometry x="-0.2362" y="15" relative="1" as="geometry">
            <mxPoint x="38" y="-15" as="offset" />
          </mxGeometry>
        </mxCell>
        <mxCell id="FJhBCzEN1oQyKlK9skSU-19" value="" style="edgeStyle=orthogonalEdgeStyle;shape=connector;curved=1;rounded=0;orthogonalLoop=1;jettySize=auto;html=1;strokeColor=default;align=center;verticalAlign=middle;fontFamily=Verdana;fontSize=12;fontColor=default;labelBackgroundColor=default;endArrow=classic;entryX=0.5;entryY=0;entryDx=0;entryDy=0;exitX=1;exitY=0.5;exitDx=0;exitDy=0;" edge="1" parent="1" source="FJhBCzEN1oQyKlK9skSU-3" target="FJhBCzEN1oQyKlK9skSU-31">
          <mxGeometry relative="1" as="geometry">
            <mxPoint x="270" y="430" as="targetPoint" />
          </mxGeometry>
        </mxCell>
        <mxCell id="FJhBCzEN1oQyKlK9skSU-22" value="NO" style="edgeLabel;html=1;align=center;verticalAlign=middle;resizable=0;points=[];fontFamily=Verdana;fontSize=12;fontColor=default;labelBackgroundColor=default;fillColor=none;gradientColor=none;" vertex="1" connectable="0" parent="FJhBCzEN1oQyKlK9skSU-19">
          <mxGeometry x="-0.2024" y="-24" relative="1" as="geometry">
            <mxPoint x="-41" y="-24" as="offset" />
          </mxGeometry>
        </mxCell>
        <mxCell id="FJhBCzEN1oQyKlK9skSU-3" value="Has 45-day PW Policy?" style="rhombus;whiteSpace=wrap;html=1;" vertex="1" parent="1">
          <mxGeometry x="165" y="260" width="120" height="120" as="geometry" />
        </mxCell>
        <mxCell id="FJhBCzEN1oQyKlK9skSU-9" value="" style="edgeStyle=orthogonalEdgeStyle;rounded=0;orthogonalLoop=1;jettySize=auto;html=1;" edge="1" parent="1" source="FJhBCzEN1oQyKlK9skSU-5" target="FJhBCzEN1oQyKlK9skSU-8">
          <mxGeometry relative="1" as="geometry" />
        </mxCell>
        <mxCell id="FJhBCzEN1oQyKlK9skSU-5" value="Check for PW change" style="rounded=0;whiteSpace=wrap;html=1;" vertex="1" parent="1">
          <mxGeometry x="30" y="410" width="120" height="60" as="geometry" />
        </mxCell>
        <mxCell id="FJhBCzEN1oQyKlK9skSU-16" value="" style="edgeStyle=orthogonalEdgeStyle;rounded=0;orthogonalLoop=1;jettySize=auto;html=1;fontFamily=Verdana;fontSize=12;fontColor=default;labelBackgroundColor=default;resizable=0;curved=1;strokeColor=default;align=center;verticalAlign=middle;endArrow=classic;exitX=0.5;exitY=1;exitDx=0;exitDy=0;entryX=0;entryY=0.5;entryDx=0;entryDy=0;" edge="1" parent="1" source="FJhBCzEN1oQyKlK9skSU-8" target="FJhBCzEN1oQyKlK9skSU-43">
          <mxGeometry relative="1" as="geometry">
            <mxPoint x="185" y="910" as="targetPoint" />
            <Array as="points">
              <mxPoint x="90" y="900" />
            </Array>
          </mxGeometry>
        </mxCell>
        <mxCell id="FJhBCzEN1oQyKlK9skSU-42" value="NO" style="edgeLabel;html=1;align=center;verticalAlign=middle;resizable=0;points=[];fontFamily=Helvetica;fontSize=12;fontColor=default;labelBackgroundColor=default;fillColor=none;gradientColor=none;" vertex="1" connectable="0" parent="FJhBCzEN1oQyKlK9skSU-16">
          <mxGeometry x="-0.3863" y="4" relative="1" as="geometry">
            <mxPoint x="-4" y="-92" as="offset" />
          </mxGeometry>
        </mxCell>
        <mxCell id="FJhBCzEN1oQyKlK9skSU-26" style="edgeStyle=orthogonalEdgeStyle;shape=connector;curved=1;rounded=0;orthogonalLoop=1;jettySize=auto;html=1;exitX=1;exitY=0.5;exitDx=0;exitDy=0;entryX=0.5;entryY=0;entryDx=0;entryDy=0;strokeColor=default;align=center;verticalAlign=middle;fontFamily=Verdana;fontSize=12;fontColor=default;labelBackgroundColor=default;endArrow=classic;" edge="1" parent="1" source="FJhBCzEN1oQyKlK9skSU-8" target="FJhBCzEN1oQyKlK9skSU-12">
          <mxGeometry relative="1" as="geometry" />
        </mxCell>
        <mxCell id="FJhBCzEN1oQyKlK9skSU-27" value="YES" style="edgeLabel;html=1;align=center;verticalAlign=middle;resizable=0;points=[];fontFamily=Verdana;fontSize=12;fontColor=default;labelBackgroundColor=default;fillColor=none;gradientColor=none;" vertex="1" connectable="0" parent="FJhBCzEN1oQyKlK9skSU-26">
          <mxGeometry x="-0.571" y="-6" relative="1" as="geometry">
            <mxPoint x="-18" y="-6" as="offset" />
          </mxGeometry>
        </mxCell>
        <mxCell id="FJhBCzEN1oQyKlK9skSU-8" value="&lt;div&gt;PW has Changed?&lt;/div&gt;" style="rhombus;whiteSpace=wrap;html=1;rounded=0;strokeColor=default;align=center;verticalAlign=middle;fontFamily=Helvetica;fontSize=12;fontColor=default;fillColor=default;" vertex="1" parent="1">
          <mxGeometry x="30" y="520" width="120" height="120" as="geometry" />
        </mxCell>
        <mxCell id="FJhBCzEN1oQyKlK9skSU-33" style="edgeStyle=orthogonalEdgeStyle;shape=connector;curved=1;rounded=0;orthogonalLoop=1;jettySize=auto;html=1;exitX=0.5;exitY=1;exitDx=0;exitDy=0;entryX=0.5;entryY=0;entryDx=0;entryDy=0;strokeColor=default;align=center;verticalAlign=middle;fontFamily=Verdana;fontSize=12;fontColor=default;labelBackgroundColor=default;endArrow=classic;" edge="1" parent="1" source="FJhBCzEN1oQyKlK9skSU-12" target="FJhBCzEN1oQyKlK9skSU-43">
          <mxGeometry relative="1" as="geometry">
            <mxPoint x="225" y="870" as="targetPoint" />
          </mxGeometry>
        </mxCell>
        <mxCell id="FJhBCzEN1oQyKlK9skSU-12" value="Assign No-Expiration PW Policy" style="whiteSpace=wrap;html=1;rounded=0;" vertex="1" parent="1">
          <mxGeometry x="165" y="680" width="120" height="60" as="geometry" />
        </mxCell>
        <mxCell id="FJhBCzEN1oQyKlK9skSU-25" style="edgeStyle=orthogonalEdgeStyle;shape=connector;curved=1;rounded=0;orthogonalLoop=1;jettySize=auto;html=1;exitX=0;exitY=0.5;exitDx=0;exitDy=0;strokeColor=default;align=center;verticalAlign=middle;fontFamily=Verdana;fontSize=12;fontColor=default;labelBackgroundColor=default;endArrow=classic;" edge="1" parent="1" source="FJhBCzEN1oQyKlK9skSU-20" target="FJhBCzEN1oQyKlK9skSU-12">
          <mxGeometry relative="1" as="geometry" />
        </mxCell>
        <mxCell id="FJhBCzEN1oQyKlK9skSU-28" value="NO" style="edgeLabel;html=1;align=center;verticalAlign=middle;resizable=0;points=[];fontFamily=Verdana;fontSize=12;fontColor=default;labelBackgroundColor=default;fillColor=none;gradientColor=none;" vertex="1" connectable="0" parent="FJhBCzEN1oQyKlK9skSU-25">
          <mxGeometry x="-0.4098" y="9" relative="1" as="geometry">
            <mxPoint x="32" y="-9" as="offset" />
          </mxGeometry>
        </mxCell>
        <mxCell id="FJhBCzEN1oQyKlK9skSU-29" style="edgeStyle=orthogonalEdgeStyle;shape=connector;curved=1;rounded=0;orthogonalLoop=1;jettySize=auto;html=1;exitX=0.5;exitY=1;exitDx=0;exitDy=0;entryX=1;entryY=0.25;entryDx=0;entryDy=0;strokeColor=default;align=center;verticalAlign=middle;fontFamily=Verdana;fontSize=12;fontColor=default;labelBackgroundColor=default;endArrow=classic;" edge="1" parent="1" source="FJhBCzEN1oQyKlK9skSU-20" target="FJhBCzEN1oQyKlK9skSU-43">
          <mxGeometry relative="1" as="geometry">
            <mxPoint x="265" y="910" as="targetPoint" />
          </mxGeometry>
        </mxCell>
        <mxCell id="FJhBCzEN1oQyKlK9skSU-30" value="YES" style="edgeLabel;html=1;align=center;verticalAlign=middle;resizable=0;points=[];fontFamily=Verdana;fontSize=12;fontColor=default;labelBackgroundColor=default;fillColor=none;gradientColor=none;" vertex="1" connectable="0" parent="FJhBCzEN1oQyKlK9skSU-29">
          <mxGeometry x="-0.281" y="-34" relative="1" as="geometry">
            <mxPoint x="34" y="-112" as="offset" />
          </mxGeometry>
        </mxCell>
        <mxCell id="FJhBCzEN1oQyKlK9skSU-20" value="Has No-Expiration PW Policy?" style="rhombus;whiteSpace=wrap;html=1;" vertex="1" parent="1">
          <mxGeometry x="300" y="520" width="120" height="120" as="geometry" />
        </mxCell>
        <mxCell id="FJhBCzEN1oQyKlK9skSU-32" style="edgeStyle=orthogonalEdgeStyle;shape=connector;curved=1;rounded=0;orthogonalLoop=1;jettySize=auto;html=1;exitX=0.5;exitY=1;exitDx=0;exitDy=0;entryX=0.5;entryY=0;entryDx=0;entryDy=0;strokeColor=default;align=center;verticalAlign=middle;fontFamily=Verdana;fontSize=12;fontColor=default;labelBackgroundColor=default;endArrow=classic;" edge="1" parent="1" source="FJhBCzEN1oQyKlK9skSU-31" target="FJhBCzEN1oQyKlK9skSU-20">
          <mxGeometry relative="1" as="geometry" />
        </mxCell>
        <mxCell id="FJhBCzEN1oQyKlK9skSU-31" value="Check for No-Expiration PW Policy" style="rounded=0;whiteSpace=wrap;html=1;" vertex="1" parent="1">
          <mxGeometry x="300" y="410" width="120" height="60" as="geometry" />
        </mxCell>
        <mxCell id="FJhBCzEN1oQyKlK9skSU-43" value="END" style="rounded=0;whiteSpace=wrap;html=1;align=center;verticalAlign=middle;fontFamily=Helvetica;fontSize=12;fontColor=default;labelBackgroundColor=default;resizable=0;fillColor=default;gradientColor=none;strokeColor=default;" vertex="1" parent="1">
          <mxGeometry x="165" y="870" width="120" height="60" as="geometry" />
        </mxCell>
        <mxCell id="FJhBCzEN1oQyKlK9skSU-47" value="" style="edgeStyle=orthogonalEdgeStyle;shape=connector;curved=1;rounded=0;orthogonalLoop=1;jettySize=auto;html=1;strokeColor=default;align=center;verticalAlign=middle;fontFamily=Helvetica;fontSize=11;fontColor=default;labelBackgroundColor=default;endArrow=classic;exitX=1;exitY=0.5;exitDx=0;exitDy=0;" edge="1" parent="1" source="FJhBCzEN1oQyKlK9skSU-50" target="FJhBCzEN1oQyKlK9skSU-46">
          <mxGeometry relative="1" as="geometry" />
        </mxCell>
        <mxCell id="FJhBCzEN1oQyKlK9skSU-48" value="YES" style="edgeLabel;html=1;align=center;verticalAlign=middle;resizable=0;points=[];fontFamily=Helvetica;fontSize=11;fontColor=default;labelBackgroundColor=default;fillColor=none;gradientColor=none;" vertex="1" connectable="0" parent="FJhBCzEN1oQyKlK9skSU-47">
          <mxGeometry relative="1" as="geometry">
            <mxPoint x="-60" y="-15" as="offset" />
          </mxGeometry>
        </mxCell>
        <mxCell id="FJhBCzEN1oQyKlK9skSU-51" value="" style="edgeStyle=orthogonalEdgeStyle;shape=connector;curved=1;rounded=0;orthogonalLoop=1;jettySize=auto;html=1;strokeColor=default;align=center;verticalAlign=middle;fontFamily=Helvetica;fontSize=11;fontColor=default;labelBackgroundColor=default;endArrow=classic;" edge="1" parent="1" source="FJhBCzEN1oQyKlK9skSU-44" target="FJhBCzEN1oQyKlK9skSU-50">
          <mxGeometry relative="1" as="geometry" />
        </mxCell>
        <mxCell id="FJhBCzEN1oQyKlK9skSU-52" value="YES" style="edgeLabel;html=1;align=center;verticalAlign=middle;resizable=0;points=[];fontFamily=Helvetica;fontSize=11;fontColor=default;labelBackgroundColor=default;fillColor=none;gradientColor=none;" vertex="1" connectable="0" parent="FJhBCzEN1oQyKlK9skSU-51">
          <mxGeometry x="-0.3" y="2" relative="1" as="geometry">
            <mxPoint as="offset" />
          </mxGeometry>
        </mxCell>
        <mxCell id="FJhBCzEN1oQyKlK9skSU-44" value="Created after&lt;br&gt;09/01/2025" style="rhombus;whiteSpace=wrap;html=1;rounded=0;" vertex="1" parent="1">
          <mxGeometry x="490" y="130" width="120" height="120" as="geometry" />
        </mxCell>
        <mxCell id="FJhBCzEN1oQyKlK9skSU-49" style="edgeStyle=orthogonalEdgeStyle;shape=connector;curved=1;rounded=0;orthogonalLoop=1;jettySize=auto;html=1;exitX=0.5;exitY=1;exitDx=0;exitDy=0;entryX=1;entryY=0.75;entryDx=0;entryDy=0;strokeColor=default;align=center;verticalAlign=middle;fontFamily=Helvetica;fontSize=11;fontColor=default;labelBackgroundColor=default;endArrow=classic;" edge="1" parent="1" source="FJhBCzEN1oQyKlK9skSU-46" target="FJhBCzEN1oQyKlK9skSU-43">
          <mxGeometry relative="1" as="geometry" />
        </mxCell>
        <mxCell id="FJhBCzEN1oQyKlK9skSU-46" value="Add to Student MFA group" style="whiteSpace=wrap;html=1;rounded=0;" vertex="1" parent="1">
          <mxGeometry x="630" y="520" width="120" height="60" as="geometry" />
        </mxCell>
        <mxCell id="FJhBCzEN1oQyKlK9skSU-53" style="edgeStyle=orthogonalEdgeStyle;shape=connector;curved=1;rounded=0;orthogonalLoop=1;jettySize=auto;html=1;exitX=0.5;exitY=1;exitDx=0;exitDy=0;entryX=1;entryY=0.5;entryDx=0;entryDy=0;strokeColor=default;align=center;verticalAlign=middle;fontFamily=Helvetica;fontSize=11;fontColor=default;labelBackgroundColor=default;endArrow=classic;" edge="1" parent="1" source="FJhBCzEN1oQyKlK9skSU-50" target="FJhBCzEN1oQyKlK9skSU-43">
          <mxGeometry relative="1" as="geometry" />
        </mxCell>
        <mxCell id="FJhBCzEN1oQyKlK9skSU-54" value="NO" style="edgeLabel;html=1;align=center;verticalAlign=middle;resizable=0;points=[];fontFamily=Helvetica;fontSize=11;fontColor=default;labelBackgroundColor=default;fillColor=none;gradientColor=none;" vertex="1" connectable="0" parent="FJhBCzEN1oQyKlK9skSU-53">
          <mxGeometry x="-0.6225" y="-3" relative="1" as="geometry">
            <mxPoint x="3" y="-114" as="offset" />
          </mxGeometry>
        </mxCell>
        <mxCell id="FJhBCzEN1oQyKlK9skSU-50" value="Date &amp;gt;&amp;nbsp;+45 days&lt;br&gt;(10/16/2025)" style="rhombus;whiteSpace=wrap;html=1;rounded=0;" vertex="1" parent="1">
          <mxGeometry x="490" y="350" width="120" height="120" as="geometry" />
        </mxCell>
      </root>
    </mxGraphModel>
  </diagram>
</mxfile>
